#tb 0: 100/2997
#media_type 0: video
#codec_id 0: rawvideo
#dimensions 0: 1440x1080
#sar 0: 4/3
0,          0,          0,        1,  2332800, 0xc22b8485
0,          1,          1,        1,  2332800, 0xc22b8485
0,          2,          2,        1,  2332800, 0xe0c21bd8
0,          3,          3,        1,  2332800, 0x3e1a8fa0
0,          4,          4,        1,  2332800, 0xbcb3f235
0,          5,          5,        1,  2332800, 0x1a7cabd6
0,          6,          6,        1,  2332800, 0xc0136ba8
0,          7,          7,        1,  2332800, 0x295e59a6
0,          8,          8,        1,  2332800, 0xf9c09288
0,          9,          9,        1,  2332800, 0x0518cc8f
0,         10,         10,        1,  2332800, 0x9ad3068e
0,         11,         11,        1,  2332800, 0x5a8b7af1
0,         12,         12,        1,  2332800, 0x7b35a8fa
0,         13,         13,        1,  2332800, 0xbe5801eb
0,         14,         14,        1,  2332800, 0x31ca019f
